# xmcd
#
# Track frame offsets:
#	150
#	18878
#	35811
#	50850
#	69497
#	87396
#	106084
#	122896
#	143034
#	161963
#	179778
#	197717
#
# Disc length: 2859 seconds
#
# Revision: 1
# Processed by: cddbd v1.5.2PL0 Copyright (c) Steve Scherf et al.
# Submitted via: audiograbber 1.83.01
#
DISCID=b30b290c
DTITLE=Matt Stillwell - Take It All In
DYEAR=2005
DGENRE=Country
TTITLE0=Take It All In
TTITLE1=On My Own
TTITLE2=Go Away
TTITLE3=Turn Around
TTITLE4=Trying To Get To Heaven
TTITLE5=The Motions
TTITLE6=Moonshine
TTITLE7=Good Hands
TTITLE8=Surrender
TTITLE9=What Happened
TTITLE10=Heroes And Men
TTITLE11=What I Do
EXTD=
EXTT0=
EXTT1=
EXTT2=
EXTT3=
EXTT4=
EXTT5=
EXTT6=
EXTT7=
EXTT8=
EXTT9=
EXTT10=
EXTT11=
PLAYORDER=
